<svg id="visual" viewBox="0 0 900 600" width="900" height="600" xmlns="http://www.w3.org/2000/svg" xmlns:xlink="http://www.w3.org/1999/xlink" version="1.1"><rect x="0" y="0" width="900" height="600" fill="#eef9f6"></rect><path d="M0 95L25 99.7C50 104.3 100 113.7 150 122.7C200 131.7 250 140.3 300 143.5C350 146.7 400 144.3 450 140.5C500 136.7 550 131.3 600 139.8C650 148.3 700 170.7 750 179C800 187.3 850 181.7 875 178.8L900 176L900 0L875 0C850 0 800 0 750 0C700 0 650 0 600 0C550 0 500 0 450 0C400 0 350 0 300 0C250 0 200 0 150 0C100 0 50 0 25 0L0 0Z" fill="#dffaf3"></path><path d="M0 89L25 104.8C50 120.7 100 152.3 150 166.5C200 180.7 250 177.3 300 169.2C350 161 400 148 450 138.8C500 129.7 550 124.3 600 128.3C650 132.3 700 145.7 750 151.7C800 157.7 850 156.3 875 155.7L900 155L900 0L875 0C850 0 800 0 750 0C700 0 650 0 600 0C550 0 500 0 450 0C400 0 350 0 300 0C250 0 200 0 150 0C100 0 50 0 25 0L0 0Z" fill="#d4f5ed"></path><path d="M0 126L25 122.2C50 118.3 100 110.7 150 110.2C200 109.7 250 116.3 300 116.8C350 117.3 400 111.7 450 111.8C500 112 550 118 600 123.8C650 129.7 700 135.3 750 137.7C800 140 850 139 875 138.5L900 138L900 0L875 0C850 0 800 0 750 0C700 0 650 0 600 0C550 0 500 0 450 0C400 0 350 0 300 0C250 0 200 0 150 0C100 0 50 0 25 0L0 0Z" fill="#caf0e6"></path><path d="M0 71L25 70C50 69 100 67 150 65.5C200 64 250 63 300 60.7C350 58.3 400 54.7 450 52.8C500 51 550 51 600 52C650 53 700 55 750 52C800 49 850 41 875 37L900 33L900 0L875 0C850 0 800 0 750 0C700 0 650 0 600 0C550 0 500 0 450 0C400 0 350 0 300 0C250 0 200 0 150 0C100 0 50 0 25 0L0 0Z" fill="#bfebdf"></path><path d="M0 55L25 52.5C50 50 100 45 150 39.2C200 33.3 250 26.7 300 24.2C350 21.7 400 23.3 450 31.7C500 40 550 55 600 54.2C650 53.3 700 36.7 750 36.7C800 36.7 850 53.3 875 61.7L900 70L900 0L875 0C850 0 800 0 750 0C700 0 650 0 600 0C550 0 500 0 450 0C400 0 350 0 300 0C250 0 200 0 150 0C100 0 50 0 25 0L0 0Z" fill="#b4e6d9"></path></svg>