<svg id="visual" viewBox="0 0 900 600" width="900" height="600" xmlns="http://www.w3.org/2000/svg" xmlns:xlink="http://www.w3.org/1999/xlink" version="1.1"><rect x="0" y="0" width="900" height="600" fill="#d0c2e5"></rect><path d="M0 89L15 92.5C30 96 60 103 90 104.7C120 106.3 150 102.7 180 107.3C210 112 240 125 270 123.3C300 121.7 330 105.3 360 107.5C390 109.7 420 130.3 450 140.8C480 151.3 510 151.7 540 142.3C570 133 600 114 630 114.5C660 115 690 135 720 144.7C750 154.3 780 153.7 810 152.8C840 152 870 151 885 150.5L900 150L900 0L885 0C870 0 840 0 810 0C780 0 750 0 720 0C690 0 660 0 630 0C600 0 570 0 540 0C510 0 480 0 450 0C420 0 390 0 360 0C330 0 300 0 270 0C240 0 210 0 180 0C150 0 120 0 90 0C60 0 30 0 15 0L0 0Z" fill="#ba8fee"></path><path d="M0 97L15 96C30 95 60 93 90 85.8C120 78.7 150 66.3 180 70C210 73.7 240 93.3 270 99.5C300 105.7 330 98.3 360 91.3C390 84.3 420 77.7 450 73C480 68.3 510 65.7 540 73C570 80.3 600 97.7 630 99.3C660 101 690 87 720 86.8C750 86.7 780 100.3 810 96.2C840 92 870 70 885 59L900 48L900 0L885 0C870 0 840 0 810 0C780 0 750 0 720 0C690 0 660 0 630 0C600 0 570 0 540 0C510 0 480 0 450 0C420 0 390 0 360 0C330 0 300 0 270 0C240 0 210 0 180 0C150 0 120 0 90 0C60 0 30 0 15 0L0 0Z" fill="#9566ce"></path><path d="M0 17L15 24.7C30 32.3 60 47.7 90 54C120 60.3 150 57.7 180 50C210 42.3 240 29.7 270 31.2C300 32.7 330 48.3 360 48.2C390 48 420 32 450 25.3C480 18.7 510 21.3 540 23.8C570 26.3 600 28.7 630 35.5C660 42.3 690 53.7 720 51.5C750 49.3 780 33.7 810 31.2C840 28.7 870 39.3 885 44.7L900 50L900 0L885 0C870 0 840 0 810 0C780 0 750 0 720 0C690 0 660 0 630 0C600 0 570 0 540 0C510 0 480 0 450 0C420 0 390 0 360 0C330 0 300 0 270 0C240 0 210 0 180 0C150 0 120 0 90 0C60 0 30 0 15 0L0 0Z" fill="#703dae"></path></svg>