<svg id="visual" viewBox="0 0 900 600" width="900" height="600" xmlns="http://www.w3.org/2000/svg" xmlns:xlink="http://www.w3.org/1999/xlink" version="1.1"><rect x="0" y="0" width="900" height="600" fill="#eef9f6"></rect><path d="M0 383L21.5 378.7C43 374.3 86 365.7 128.8 365C171.7 364.3 214.3 371.7 257.2 372.7C300 373.7 343 368.3 385.8 375.5C428.7 382.7 471.3 402.3 514.2 414.5C557 426.7 600 431.3 642.8 429C685.7 426.7 728.3 417.3 771.2 417.3C814 417.3 857 426.7 878.5 431.3L900 436L900 601L878.5 601C857 601 814 601 771.2 601C728.3 601 685.7 601 642.8 601C600 601 557 601 514.2 601C471.3 601 428.7 601 385.8 601C343 601 300 601 257.2 601C214.3 601 171.7 601 128.8 601C86 601 43 601 21.5 601L0 601Z" fill="#dffaf3"></path><path d="M0 397L21.5 402C43 407 86 417 128.8 427C171.7 437 214.3 447 257.2 452.8C300 458.7 343 460.3 385.8 462.8C428.7 465.3 471.3 468.7 514.2 469.8C557 471 600 470 642.8 457C685.7 444 728.3 419 771.2 417C814 415 857 436 878.5 446.5L900 457L900 601L878.5 601C857 601 814 601 771.2 601C728.3 601 685.7 601 642.8 601C600 601 557 601 514.2 601C471.3 601 428.7 601 385.8 601C343 601 300 601 257.2 601C214.3 601 171.7 601 128.8 601C86 601 43 601 21.5 601L0 601Z" fill="#cff3ea"></path><path d="M0 508L21.5 499.2C43 490.3 86 472.7 128.8 464.5C171.7 456.3 214.3 457.7 257.2 461C300 464.3 343 469.7 385.8 471.8C428.7 474 471.3 473 514.2 469.5C557 466 600 460 642.8 461.5C685.7 463 728.3 472 771.2 480.2C814 488.3 857 495.7 878.5 499.3L900 503L900 601L878.5 601C857 601 814 601 771.2 601C728.3 601 685.7 601 642.8 601C600 601 557 601 514.2 601C471.3 601 428.7 601 385.8 601C343 601 300 601 257.2 601C214.3 601 171.7 601 128.8 601C86 601 43 601 21.5 601L0 601Z" fill="#beece0"></path><path d="M0 529L21.5 527.7C43 526.3 86 523.7 128.8 525.3C171.7 527 214.3 533 257.2 530.5C300 528 343 517 385.8 508.3C428.7 499.7 471.3 493.3 514.2 491.3C557 489.3 600 491.7 642.8 493.3C685.7 495 728.3 496 771.2 498.3C814 500.7 857 504.3 878.5 506.2L900 508L900 601L878.5 601C857 601 814 601 771.2 601C728.3 601 685.7 601 642.8 601C600 601 557 601 514.2 601C471.3 601 428.7 601 385.8 601C343 601 300 601 257.2 601C214.3 601 171.7 601 128.8 601C86 601 43 601 21.5 601L0 601Z" fill="#ade5d6"></path><path d="M0 554L21.5 553C43 552 86 550 128.8 553.3C171.7 556.7 214.3 565.3 257.2 563.7C300 562 343 550 385.8 545.2C428.7 540.3 471.3 542.7 514.2 544.7C557 546.7 600 548.3 642.8 547.3C685.7 546.3 728.3 542.7 771.2 544.3C814 546 857 553 878.5 556.5L900 560L900 601L878.5 601C857 601 814 601 771.2 601C728.3 601 685.7 601 642.8 601C600 601 557 601 514.2 601C471.3 601 428.7 601 385.8 601C343 601 300 601 257.2 601C214.3 601 171.7 601 128.8 601C86 601 43 601 21.5 601L0 601Z" fill="#9cddcc"></path></svg>