<svg id="visual" viewBox="0 0 900 600" width="900" height="600" xmlns="http://www.w3.org/2000/svg" xmlns:xlink="http://www.w3.org/1999/xlink" version="1.1"><rect x="0" y="0" width="900" height="600" fill="#eef9f6"></rect><path d="M0 361L21.5 363.7C43 366.3 86 371.7 128.8 376.7C171.7 381.7 214.3 386.3 257.2 396.8C300 407.3 343 423.7 385.8 422C428.7 420.3 471.3 400.7 514.2 386.3C557 372 600 363 642.8 366C685.7 369 728.3 384 771.2 394.2C814 404.3 857 409.7 878.5 412.3L900 415L900 601L878.5 601C857 601 814 601 771.2 601C728.3 601 685.7 601 642.8 601C600 601 557 601 514.2 601C471.3 601 428.7 601 385.8 601C343 601 300 601 257.2 601C214.3 601 171.7 601 128.8 601C86 601 43 601 21.5 601L0 601Z" fill="#dffaf3"></path><path d="M0 439L21.5 436.2C43 433.3 86 427.7 128.8 432.5C171.7 437.3 214.3 452.7 257.2 456.7C300 460.7 343 453.3 385.8 453C428.7 452.7 471.3 459.3 514.2 463.7C557 468 600 470 642.8 466C685.7 462 728.3 452 771.2 443.5C814 435 857 428 878.5 424.5L900 421L900 601L878.5 601C857 601 814 601 771.2 601C728.3 601 685.7 601 642.8 601C600 601 557 601 514.2 601C471.3 601 428.7 601 385.8 601C343 601 300 601 257.2 601C214.3 601 171.7 601 128.8 601C86 601 43 601 21.5 601L0 601Z" fill="#d4f5ed"></path><path d="M0 486L21.5 483.2C43 480.3 86 474.7 128.8 474.5C171.7 474.3 214.3 479.7 257.2 480C300 480.3 343 475.7 385.8 472.5C428.7 469.3 471.3 467.7 514.2 463.2C557 458.7 600 451.3 642.8 456.3C685.7 461.3 728.3 478.7 771.2 484C814 489.3 857 482.7 878.5 479.3L900 476L900 601L878.5 601C857 601 814 601 771.2 601C728.3 601 685.7 601 642.8 601C600 601 557 601 514.2 601C471.3 601 428.7 601 385.8 601C343 601 300 601 257.2 601C214.3 601 171.7 601 128.8 601C86 601 43 601 21.5 601L0 601Z" fill="#caf0e6"></path><path d="M0 513L21.5 508.8C43 504.7 86 496.3 128.8 499.8C171.7 503.3 214.3 518.7 257.2 521.5C300 524.3 343 514.7 385.8 507.8C428.7 501 471.3 497 514.2 494C557 491 600 489 642.8 489.5C685.7 490 728.3 493 771.2 495.7C814 498.3 857 500.7 878.5 501.8L900 503L900 601L878.5 601C857 601 814 601 771.2 601C728.3 601 685.7 601 642.8 601C600 601 557 601 514.2 601C471.3 601 428.7 601 385.8 601C343 601 300 601 257.2 601C214.3 601 171.7 601 128.8 601C86 601 43 601 21.5 601L0 601Z" fill="#bfebdf"></path><path d="M0 532L21.5 531.2C43 530.3 86 528.7 128.8 530.2C171.7 531.7 214.3 536.3 257.2 539.7C300 543 343 545 385.8 547.3C428.7 549.7 471.3 552.3 514.2 549.3C557 546.3 600 537.7 642.8 534.5C685.7 531.3 728.3 533.7 771.2 533.7C814 533.7 857 531.3 878.5 530.2L900 529L900 601L878.5 601C857 601 814 601 771.2 601C728.3 601 685.7 601 642.8 601C600 601 557 601 514.2 601C471.3 601 428.7 601 385.8 601C343 601 300 601 257.2 601C214.3 601 171.7 601 128.8 601C86 601 43 601 21.5 601L0 601Z" fill="#b4e6d9"></path></svg>