<svg id="visual" viewBox="0 0 900 600" width="900" height="600" xmlns="http://www.w3.org/2000/svg" xmlns:xlink="http://www.w3.org/1999/xlink" version="1.1"><rect x="0" y="0" width="900" height="600" fill="#d0c2e5"></rect><path d="M0 446L21.5 433.2C43 420.3 86 394.7 128.8 393C171.7 391.3 214.3 413.7 257.2 416.2C300 418.7 343 401.3 385.8 387C428.7 372.7 471.3 361.3 514.2 361.7C557 362 600 374 642.8 376.3C685.7 378.7 728.3 371.3 771.2 380.2C814 389 857 414 878.5 426.5L900 439L900 601L878.5 601C857 601 814 601 771.2 601C728.3 601 685.7 601 642.8 601C600 601 557 601 514.2 601C471.3 601 428.7 601 385.8 601C343 601 300 601 257.2 601C214.3 601 171.7 601 128.8 601C86 601 43 601 21.5 601L0 601Z" fill="#ba8fee"></path><path d="M0 445L21.5 444.8C43 444.7 86 444.3 128.8 440C171.7 435.7 214.3 427.3 257.2 427.3C300 427.3 343 435.7 385.8 444.2C428.7 452.7 471.3 461.3 514.2 462.3C557 463.3 600 456.7 642.8 447.8C685.7 439 728.3 428 771.2 423.7C814 419.3 857 421.7 878.5 422.8L900 424L900 601L878.5 601C857 601 814 601 771.2 601C728.3 601 685.7 601 642.8 601C600 601 557 601 514.2 601C471.3 601 428.7 601 385.8 601C343 601 300 601 257.2 601C214.3 601 171.7 601 128.8 601C86 601 43 601 21.5 601L0 601Z" fill="#a77ade"></path><path d="M0 455L21.5 457.7C43 460.3 86 465.7 128.8 464.2C171.7 462.7 214.3 454.3 257.2 455.7C300 457 343 468 385.8 473.8C428.7 479.7 471.3 480.3 514.2 478.8C557 477.3 600 473.7 642.8 476.8C685.7 480 728.3 490 771.2 485C814 480 857 460 878.5 450L900 440L900 601L878.5 601C857 601 814 601 771.2 601C728.3 601 685.7 601 642.8 601C600 601 557 601 514.2 601C471.3 601 428.7 601 385.8 601C343 601 300 601 257.2 601C214.3 601 171.7 601 128.8 601C86 601 43 601 21.5 601L0 601Z" fill="#9566ce"></path><path d="M0 521L21.5 520.3C43 519.7 86 518.3 128.8 513.2C171.7 508 214.3 499 257.2 503.3C300 507.7 343 525.3 385.8 528C428.7 530.7 471.3 518.3 514.2 508.8C557 499.3 600 492.7 642.8 491.7C685.7 490.7 728.3 495.3 771.2 504.3C814 513.3 857 526.7 878.5 533.3L900 540L900 601L878.5 601C857 601 814 601 771.2 601C728.3 601 685.7 601 642.8 601C600 601 557 601 514.2 601C471.3 601 428.7 601 385.8 601C343 601 300 601 257.2 601C214.3 601 171.7 601 128.8 601C86 601 43 601 21.5 601L0 601Z" fill="#8352be"></path><path d="M0 526L21.5 526.3C43 526.7 86 527.3 128.8 529.2C171.7 531 214.3 534 257.2 533.3C300 532.7 343 528.3 385.8 533.2C428.7 538 471.3 552 514.2 553.5C557 555 600 544 642.8 539C685.7 534 728.3 535 771.2 540.8C814 546.7 857 557.3 878.5 562.7L900 568L900 601L878.5 601C857 601 814 601 771.2 601C728.3 601 685.7 601 642.8 601C600 601 557 601 514.2 601C471.3 601 428.7 601 385.8 601C343 601 300 601 257.2 601C214.3 601 171.7 601 128.8 601C86 601 43 601 21.5 601L0 601Z" fill="#703dae"></path></svg>