<svg id="visual" viewBox="0 0 900 600" width="900" height="600" xmlns="http://www.w3.org/2000/svg" xmlns:xlink="http://www.w3.org/1999/xlink" version="1.1"><rect x="0" y="0" width="900" height="600" fill="#d0c2e5"></rect><path d="M0 520L15 522.7C30 525.3 60 530.7 90 527.7C120 524.7 150 513.3 180 509.2C210 505 240 508 270 505.3C300 502.7 330 494.3 360 495C390 495.7 420 505.3 450 509.5C480 513.7 510 512.3 540 516.2C570 520 600 529 630 527.2C660 525.3 690 512.7 720 509.8C750 507 780 514 810 513C840 512 870 503 885 498.5L900 494L900 601L885 601C870 601 840 601 810 601C780 601 750 601 720 601C690 601 660 601 630 601C600 601 570 601 540 601C510 601 480 601 450 601C420 601 390 601 360 601C330 601 300 601 270 601C240 601 210 601 180 601C150 601 120 601 90 601C60 601 30 601 15 601L0 601Z" fill="#ba8fee"></path><path d="M0 528L15 525.5C30 523 60 518 90 521C120 524 150 535 180 537.3C210 539.7 240 533.3 270 530.5C300 527.7 330 528.3 360 525.8C390 523.3 420 517.7 450 521.5C480 525.3 510 538.7 540 538.3C570 538 600 524 630 517C660 510 690 510 720 509.5C750 509 780 508 810 514.2C840 520.3 870 533.7 885 540.3L900 547L900 601L885 601C870 601 840 601 810 601C780 601 750 601 720 601C690 601 660 601 630 601C600 601 570 601 540 601C510 601 480 601 450 601C420 601 390 601 360 601C330 601 300 601 270 601C240 601 210 601 180 601C150 601 120 601 90 601C60 601 30 601 15 601L0 601Z" fill="#a174d9"></path><path d="M0 542L15 540C30 538 60 534 90 536.2C120 538.3 150 546.7 180 552.8C210 559 240 563 270 561.2C300 559.3 330 551.7 360 553.3C390 555 420 566 450 567.3C480 568.7 510 560.3 540 559.2C570 558 600 564 630 563.8C660 563.7 690 557.3 720 553.8C750 550.3 780 549.7 810 553.8C840 558 870 567 885 571.5L900 576L900 601L885 601C870 601 840 601 810 601C780 601 750 601 720 601C690 601 660 601 630 601C600 601 570 601 540 601C510 601 480 601 450 601C420 601 390 601 360 601C330 601 300 601 270 601C240 601 210 601 180 601C150 601 120 601 90 601C60 601 30 601 15 601L0 601Z" fill="#8958c3"></path><path d="M0 591L15 587.3C30 583.7 60 576.3 90 572.3C120 568.3 150 567.7 180 569.8C210 572 240 577 270 574.8C300 572.7 330 563.3 360 563.8C390 564.3 420 574.7 450 581.3C480 588 510 591 540 592.7C570 594.3 600 594.7 630 594.3C660 594 690 593 720 591.5C750 590 780 588 810 584.2C840 580.3 870 574.7 885 571.8L900 569L900 601L885 601C870 601 840 601 810 601C780 601 750 601 720 601C690 601 660 601 630 601C600 601 570 601 540 601C510 601 480 601 450 601C420 601 390 601 360 601C330 601 300 601 270 601C240 601 210 601 180 601C150 601 120 601 90 601C60 601 30 601 15 601L0 601Z" fill="#703dae"></path></svg>