<svg id="Layer_1" data-name="Layer 1" xmlns="http://www.w3.org/2000/svg" viewBox="0 0 920.8 173.7">
  <defs>
    <style>
      .cls-1 {
        fill: #5946b7;
      }
    </style>
  </defs>
  <title>3</title>
  <polygon points="86.2 1.3 86.2 30.8 51.1 65.9 21.6 65.9 82 5.4 86.2 1.3"/>
  <polygon points="172.6 108 111.7 168.9 107.2 173.4 107.2 143.2 142.5 108 172.6 108"/>
  <polygon class="cls-1" points="193.7 86.5 193.7 86.9 183.1 97.5 40.2 97.5 50.7 108 86.2 143.5 86.2 173.7 0 87.5 1 86.5 11.1 76.4 153 76.4 142.5 65.9 107.2 30.7 107.2 0 173.1 65.9 173.1 65.9 178.9 71.6 183.7 76.4 193.7 86.5"/>
  <g>
    <path d="M224.2,184.4V30h29.6l67.1,103V30h29.6V184.4H320.9L253.8,81.5V184.4Z" transform="translate(0 -16.2)"/>
    <path d="M380.5,184.4V30H481.3V57.3H409.7v33h58.8v27.2H409.7v39.7h71.6v27.2Z" transform="translate(0 -16.2)"/>
    <path d="M494.2,184.4l51.9-78L495.7,30h35.8l32.8,51.5L596.7,30h36l-50.4,76.4,51.7,78H598.2l-33.9-53.1-34.1,53.1Z" transform="translate(0 -16.2)"/>
    <path d="M714,187.7c-12.4,0-23.4-2.6-32.8-7.6a54.6,54.6,0,0,1-22.1-21.3c-5.3-9.1-7.9-19.9-7.9-32.3V30.2l29.6-.2v96.3a34,34,0,0,0,2.6,13.8,30.8,30.8,0,0,0,7.1,10.8,31.3,31.3,0,0,0,10.6,6.9,36,36,0,0,0,26.1-.1,30.9,30.9,0,0,0,10.5-6.9,30.5,30.5,0,0,0,7-10.8,35.6,35.6,0,0,0,2.6-13.7V30h29.6v96.5c0,12.4-2.7,23.2-8,32.3a54,54,0,0,1-22.1,21.3C737.4,185.1,726.5,187.7,714,187.7Z" transform="translate(0 -16.2)"/>
    <path d="M858.8,187.7a76.9,76.9,0,0,1-31-6.1,57.3,57.3,0,0,1-22.6-17.4c-5.9-7.5-9.6-16.5-11.2-26.9l30.5-4.5c2.1,8.8,6.5,15.6,13.3,20.4a38.3,38.3,0,0,0,22.9,7.2,44.5,44.5,0,0,0,14-2.2,26.9,26.9,0,0,0,11-6.7,14.7,14.7,0,0,0,4.4-10.8,14.3,14.3,0,0,0-.7-4.6,13,13,0,0,0-2.3-4.1,16,16,0,0,0-4.6-3.6,34.8,34.8,0,0,0-7.4-3.2L835,113.4a94.4,94.4,0,0,1-10.5-3.6A45.7,45.7,0,0,1,813,103a35,35,0,0,1-9.3-11.6c-2.4-4.8-3.7-10.9-3.7-18.3q0-15.4,7.8-25.8a46.2,46.2,0,0,1,21-15.3,78.6,78.6,0,0,1,28.9-5c10.7.2,20.2,2,28.5,5.5a53.9,53.9,0,0,1,21,15.3,60.3,60.3,0,0,1,12.3,24.5l-31.6,5.3A26.9,26.9,0,0,0,881.6,65a29.5,29.5,0,0,0-11-7.8,35.7,35.7,0,0,0-13.3-2.9,34.2,34.2,0,0,0-12.9,1.8,23.5,23.5,0,0,0-9.9,6.1,13.2,13.2,0,0,0-3.8,9.4,11,11,0,0,0,3.1,8.2,24,24,0,0,0,7.8,5.1,68.8,68.8,0,0,0,9.7,3.2l26.8,7.3c4,1.1,8.4,2.5,13.3,4.3a60.5,60.5,0,0,1,14,7.3,38.1,38.1,0,0,1,11,12.2c2.9,5.1,4.4,11.6,4.4,19.3a44.8,44.8,0,0,1-5.2,21.8,46.6,46.6,0,0,1-14,15.3,68.3,68.3,0,0,1-19.9,9.1A87.8,87.8,0,0,1,858.8,187.7Z" transform="translate(0 -16.2)"/>
  </g>
</svg>
